<svg width="43" height="45" viewBox="0 0 43 45" fill="none" xmlns="http://www.w3.org/2000/svg">
<path d="M2.0128 37.9453L18.4044 44.2498C18.5362 44.3004 18.6801 44.3102 18.8175 44.278L30.6419 41.4958L34.8607 42.0946V42.8904C34.8607 43.0769 34.9348 43.2557 35.0666 43.3876C35.1985 43.5195 35.3773 43.5935 35.5638 43.5935H41.8919C42.0784 43.5935 42.2573 43.5195 42.3891 43.3876C42.521 43.2557 42.5951 43.0769 42.5951 42.8904V30.2342C42.5951 30.0477 42.521 29.8688 42.3891 29.737C42.2573 29.6051 42.0784 29.531 41.8919 29.531H35.5638C35.3773 29.531 35.1985 29.6051 35.0666 29.737C34.9348 29.8688 34.8607 30.0477 34.8607 30.2342V30.9352L32.0345 30.9373L23.6107 30.4915V29.4855C24.4032 29.587 25.2083 29.5184 25.9722 29.2844C26.7362 29.0504 27.4415 28.6564 28.0413 28.1285C28.6411 27.6006 29.1215 26.951 29.4506 26.2229C29.7797 25.4949 29.9499 24.705 29.9499 23.906C29.9499 23.1071 29.7797 22.3172 29.4506 21.5892C29.1215 20.8611 28.6411 20.2115 28.0413 19.6836C27.4415 19.1557 26.7362 18.7617 25.9722 18.5277C25.2083 18.2937 24.4032 18.2251 23.6107 18.3266V17.5779C23.6107 17.3914 23.5366 17.2126 23.4048 17.0807C23.2729 16.9489 23.094 16.8748 22.9076 16.8748H22.2044V14.7654C22.2044 14.5789 22.1304 14.4001 21.9985 14.2682C21.8666 14.1364 21.6878 14.0623 21.5013 14.0623H20.7982V11.9652C20.7973 10.9674 21.1014 9.99317 21.6699 9.17311L28.4623 9.85233L28.4821 9.854C28.5892 9.86162 28.6966 9.86543 28.8045 9.86543C30.5104 9.86543 32.2938 8.9221 33.3231 7.45195L36.8388 2.53008C36.91 2.43032 36.9539 2.31368 36.9662 2.19172C36.9784 2.06976 36.9586 1.94672 36.9086 1.8348C36.8586 1.72287 36.7802 1.62596 36.6813 1.55366C36.5823 1.48137 36.4661 1.43621 36.3443 1.42265L30.0162 0.719529C30.0082 0.71865 30.0003 0.717859 29.9923 0.717332C28.0572 0.568797 25.681 1.59975 24.4675 3.11675C24.46 3.12624 24.4526 3.13591 24.4456 3.14584L21.4837 7.26879C20.5677 8.09419 19.9124 9.169 19.5982 10.3614C19.3417 10.0062 19.0493 9.67831 18.7256 9.383L15.7445 5.23245C15.7374 5.22252 15.7301 5.21285 15.7225 5.20345C14.509 3.68672 12.1324 2.6555 10.1977 2.80403C10.1897 2.80465 10.1818 2.80544 10.1739 2.80632L3.84576 3.50944C3.72394 3.52299 3.60777 3.56816 3.50879 3.64045C3.4098 3.71275 3.33144 3.80966 3.28146 3.92158C3.23149 4.03351 3.21164 4.15655 3.22389 4.27851C3.23614 4.40047 3.28005 4.51711 3.35128 4.61686L6.86304 9.53329C7.89585 11.0089 9.67932 11.9529 11.3851 11.9529C11.493 11.9529 11.6004 11.9491 11.7075 11.9415C11.7142 11.9415 11.7208 11.9405 11.7274 11.9398L18.5134 11.2612C19.086 12.083 19.3927 13.0607 19.3919 14.0623H11.6576C11.4711 14.0623 11.2922 14.1364 11.1604 14.2682C11.0285 14.4001 10.9544 14.5789 10.9544 14.7654V17.5779C10.9544 17.7644 11.0285 17.9432 11.1604 18.0751C11.2922 18.207 11.4711 18.281 11.6576 18.281H12.3607V19.6873H11.6576C11.4711 19.6873 11.2922 19.7614 11.1604 19.8932C11.0285 20.0251 10.9544 20.2039 10.9544 20.3904V23.2029C10.9544 23.3894 11.0285 23.5682 11.1604 23.7001C11.2922 23.832 11.4711 23.906 11.6576 23.906H12.3607V25.3123H11.6576C11.4711 25.3123 11.2922 25.3864 11.1604 25.5182C11.0285 25.6501 10.9544 25.8289 10.9544 26.0154V28.8279C10.9544 29.0144 11.0285 29.1932 11.1604 29.3251C11.2922 29.457 11.4711 29.531 11.6576 29.531H12.3607V30.9373H11.6576C11.4711 30.9373 11.2922 31.0114 11.1604 31.1432C11.0285 31.2751 10.9544 31.4539 10.9544 31.6404V34.4529C10.9543 34.5472 10.9733 34.6406 11.0101 34.7274L3.66409 32.8114C2.99626 32.6371 2.28706 32.7251 1.68209 33.0573C1.07711 33.3896 0.622277 33.9408 0.410959 34.5978C0.199642 35.2549 0.24788 35.9679 0.545768 36.5905C0.843657 37.2131 1.36859 37.698 2.0128 37.9457V37.9453ZM36.2669 30.9373H41.1888V42.1873H36.2669V30.9373ZM27.1263 5.6371H25.7201C25.23 5.63739 24.7416 5.69473 24.2648 5.80796L25.5769 3.98124C26.4962 2.84429 28.4187 2.01117 29.8736 2.1184L34.9982 2.68775L32.1753 6.64011C31.3526 7.81529 29.9139 8.54232 28.5922 8.45206L22.9643 7.88956C23.777 7.33714 24.7373 7.04227 25.7201 7.04335H27.1263C27.3128 7.04335 27.4916 6.96927 27.6235 6.83741C27.7554 6.70555 27.8294 6.5267 27.8294 6.34022C27.8294 6.15374 27.7554 5.9749 27.6235 5.84304C27.4916 5.71118 27.3128 5.6371 27.1263 5.6371ZM11.598 10.5391C10.2755 10.6295 8.83742 9.90225 8.01098 8.72171L5.19189 4.77542L10.3165 4.20606C11.7729 4.09954 13.6939 4.93186 14.6133 6.06882L15.9341 7.9074C15.4545 7.79275 14.9632 7.73461 14.4701 7.73417H13.0638C12.8773 7.73417 12.6985 7.80825 12.5666 7.94011C12.4348 8.07197 12.3607 8.25081 12.3607 8.43729C12.3607 8.62377 12.4348 8.80262 12.5666 8.93448C12.6985 9.06634 12.8773 9.14042 13.0638 9.14042H14.4701C15.4474 9.13933 16.4028 9.4309 17.213 9.97758L11.598 10.5391ZM24.3138 19.6873C25.1482 19.6873 25.9639 19.9347 26.6576 20.3983C27.3514 20.8618 27.8921 21.5207 28.2114 22.2916C28.5307 23.0625 28.6143 23.9107 28.4515 24.7291C28.2887 25.5474 27.8869 26.2992 27.2969 26.8892C26.7069 27.4792 25.9552 27.881 25.1369 28.0437C24.3185 28.2065 23.4702 28.123 22.6994 27.8037C21.9285 27.4844 21.2696 26.9436 20.8061 26.2499C20.3425 25.5561 20.0951 24.7404 20.0951 23.906C20.0963 22.7875 20.5412 21.7152 21.3321 20.9243C22.123 20.1334 23.1953 19.6886 24.3138 19.6873ZM22.2044 29.531V30.4172L19.9984 30.3004C19.6866 30.2851 19.375 30.3338 19.0828 30.4433C18.7905 30.5528 18.5236 30.7209 18.2987 30.9373H13.7669V29.531H22.2044ZM22.2044 18.281V18.693C21.6172 18.9317 21.0745 19.2679 20.5992 19.6873H13.7669V18.281H22.2044ZM12.3607 15.4685H20.7982V16.8748H12.3607V15.4685ZM12.3607 21.0935H19.4456C19.1895 21.5337 18.9948 22.0069 18.8668 22.4998H12.3607V21.0935ZM18.8668 25.3123H13.7669V23.906H18.6888C18.6885 24.3804 18.7483 24.8529 18.8668 25.3123ZM12.3607 26.7185H19.4456C19.7518 27.2464 20.1414 27.7213 20.5992 28.1248H12.3607V26.7185ZM12.3607 32.3435H17.6026C17.5481 32.8325 17.6536 33.3259 17.9032 33.7498H12.3607V32.3435ZM20.686 35.156L21.0854 35.2555L17.9073 36.5271L12.6532 35.156H20.686ZM1.78024 34.9437C1.89782 34.6512 2.1179 34.4115 2.39935 34.2694C2.6808 34.1273 3.00436 34.0926 3.30954 34.1718L17.7763 37.9458C17.9217 37.9837 18.0754 37.9741 18.2149 37.9183L23.4198 35.8363L26.2536 36.5415C26.3434 36.5645 26.4369 36.5695 26.5287 36.5563C26.6205 36.543 26.7088 36.5117 26.7885 36.4642C26.8681 36.4167 26.9376 36.3539 26.9928 36.2794C27.0481 36.2049 27.0881 36.1202 27.1105 36.0302C27.1329 35.9402 27.1373 35.8466 27.1234 35.7549C27.1095 35.6632 27.0775 35.5752 27.0294 35.4958C26.9814 35.4165 26.9181 35.3475 26.8432 35.2928C26.7683 35.238 26.6833 35.1986 26.5932 35.1769L19.6683 33.4536C19.4543 33.4002 19.2679 33.2692 19.1452 33.086C19.0225 32.9028 18.9723 32.6805 19.0045 32.4624C19.0366 32.2442 19.1487 32.0458 19.319 31.9058C19.4893 31.7657 19.7056 31.694 19.9259 31.7046L31.9792 32.3424C31.9917 32.343 34.8609 32.3413 34.8609 32.3413V40.6741L30.7089 40.0848C30.6223 40.0724 30.5342 40.0764 30.4491 40.0964L18.7069 42.8592L2.51764 36.6326C2.3576 36.5711 2.21137 36.4784 2.08745 36.3599C1.96353 36.2413 1.86439 36.0994 1.79579 35.9422C1.72718 35.7851 1.69048 35.6159 1.68781 35.4444C1.68514 35.273 1.71656 35.1027 1.78024 34.9435V34.9437Z" fill="#00154F"/>
</svg>
